<?xml version="1.0" encoding="iso-8859-1"?>
<!-- Generator: Adobe Illustrator 19.0.0, SVG Export Plug-In . SVG Version: 6.00 Build 0)  -->
<svg version="1.1" id="Capa_1" xmlns="http://www.w3.org/2000/svg" xmlns:xlink="http://www.w3.org/1999/xlink" x="0px" y="0px"
	 viewBox="0 0 56.48 56.48" style="enable-background:new 0 0 56.48 56.48;" xml:space="preserve">
<g>
	<g>
		<path d="M36.782,27.008c-0.061-0.457-0.35-0.603-0.793-0.473c-0.103,0.03-0.202,0.074-0.306,0.107
			c-0.182,0.056-0.252,0.161-0.25,0.366c0.011,1.169,0.005,2.341,0.005,3.513c0,0.205,0,0.41,0,0.605
			c0.721,0.264,1.146,0.065,1.295-0.654C36.97,29.325,36.935,28.164,36.782,27.008z"/>
	</g>
</g>
<g>
	<g>
		<path d="M55.026,9.939H1.454C0.65,9.939,0,10.59,0,11.393v33.694c0,0.803,0.65,1.455,1.454,1.455h53.572
			c0.804,0,1.454-0.651,1.454-1.454V11.393C56.48,10.591,55.83,9.939,55.026,9.939z M14.008,30.844
			c-0.171,1.633-1.086,2.487-2.73,2.637c-1.067,0.098-2.101-0.043-3.122-0.331c-0.088-0.024-0.216-0.134-0.217-0.206
			c-0.016-0.719-0.01-1.436-0.01-2.184c0.52,0.11,1.011,0.233,1.51,0.309c0.308,0.048,0.632,0.065,0.938,0.018
			c0.16-0.022,0.352-0.181,0.43-0.328c0.108-0.207,0.008-0.439-0.193-0.565c-0.265-0.166-0.554-0.295-0.83-0.444
			c-0.32-0.173-0.655-0.324-0.95-0.533c-0.582-0.41-0.921-0.984-1.014-1.698c-0.009-0.066-0.035-0.131-0.054-0.196
			c0-0.178,0-0.354,0-0.532c0.048-0.238,0.08-0.482,0.146-0.715c0.31-1.107,1.121-1.652,2.184-1.869
			c1.132-0.23,2.251-0.131,3.351,0.223c0.176,0.057,0.245,0.138,0.241,0.331c-0.013,0.669-0.005,1.338-0.005,1.998
			c-0.56-0.102-1.099-0.21-1.642-0.292c-0.22-0.032-0.462-0.048-0.672,0.009c-0.152,0.04-0.358,0.199-0.379,0.331
			c-0.024,0.156,0.079,0.398,0.208,0.497c0.238,0.183,0.536,0.284,0.805,0.428c0.347,0.182,0.714,0.343,1.028,0.572
			C13.894,28.935,14.115,29.844,14.008,30.844z M18.84,30.526c0.048,0.402,0.197,0.539,0.603,0.515
			c0.353-0.02,0.703-0.074,1.088-0.117c0,0.777,0,1.524,0,2.308c-1.118,0.206-2.238,0.444-3.378,0.168
			c-1.007-0.244-1.562-1.07-1.575-2.32c-0.015-1.468-0.005-2.937-0.005-4.405c0-0.106,0-0.21,0-0.339c-0.402,0-0.774,0-1.17,0
			c0-0.694,0-1.368,0-2.07c0.379,0,0.759,0,1.166,0c0.123-0.607,0.249-1.191,0.354-1.779c0.035-0.198,0.102-0.305,0.314-0.352
			c0.853-0.191,1.7-0.405,2.583-0.617c0,0.915,0,1.805,0,2.729c0.584,0,1.141,0,1.727,0c-0.146,0.71-0.285,1.382-0.428,2.076
			c-0.421,0-0.832,0-1.272,0c-0.007,0.117-0.017,0.211-0.017,0.305c-0.001,1.202,0,2.404,0,3.606
			C18.83,30.333,18.829,30.432,18.84,30.526z M26.765,26.952c-0.361-0.045-0.682-0.094-1.004-0.123
			c-0.165-0.013-0.335-0.002-0.5,0.019c-0.675,0.088-0.766,0.194-0.766,0.859c0,1.764,0,3.527,0,5.291c0,0.106,0,0.212,0,0.335
			c-1.089,0-2.149,0-3.233,0c0-3.01,0-6.019,0-9.054c0.066-0.007,0.14-0.022,0.214-0.022c0.7-0.002,1.399,0.005,2.099-0.006
			c0.183-0.003,0.288,0.054,0.366,0.22c0.1,0.213,0.225,0.413,0.344,0.626c0.598-0.948,1.2-1.19,2.216-0.919
			c0.191,0.05,0.274,0.125,0.271,0.337C26.76,25.322,26.767,26.129,26.765,26.952z M30.782,33.34c-1.077,0-2.137,0-3.221,0
			c0-3.039,0-6.048,0-9.07c1.08,0,2.14,0,3.221,0C30.782,27.292,30.782,30.31,30.782,33.34z M29.189,23.15c-0.002,0-0.004,0-0.004,0
			c-0.131,0.002-0.265-0.015-0.396-0.048c-0.29-0.073-0.543-0.219-0.741-0.414c-0.307-0.298-0.498-0.715-0.498-1.176
			c0-0.82,0.603-1.5,1.39-1.619c0.02-0.008,0.039-0.014,0.059-0.02c0.118,0,0.237,0,0.355,0c0.007,0.004,0.015,0.007,0.023,0.012
			c0.816,0.093,1.45,0.785,1.45,1.627C30.827,22.416,30.094,23.148,29.189,23.15z M39.882,31.075
			c-0.017,0.066-0.037,0.133-0.057,0.198c-0.466,1.503-1.409,2.224-2.98,2.239c-0.457,0.006-0.916-0.08-1.399-0.127
			c0,1.062,0,2.142,0,3.223c-1.085,0-2.169,0-3.253,0c-0.006-0.098-0.012-0.196-0.012-0.295c0-3.902,0-7.805,0-11.707
			c0-0.106,0-0.212,0-0.351c0.541,0,1.051,0,1.561,0c0.079,0,0.157,0.006,0.236-0.001c0.525-0.042,1.037-0.054,1.277,0.578
			c0.118-0.082,0.197-0.134,0.275-0.189c0.841-0.59,1.765-0.685,2.734-0.418c0.629,0.174,1.041,0.613,1.322,1.187
			c0.307,0.629,0.436,1.305,0.496,1.994C40.189,28.638,40.197,29.866,39.882,31.075z M45.06,31.01
			c0.779,0.121,1.547-0.041,2.314-0.168c0.259-0.043,0.519-0.093,0.82-0.146c0,0.571,0,1.121,0,1.668c0,0.717,0,0.716-0.696,0.892
			c-1.21,0.302-2.428,0.358-3.657,0.112c-1.379-0.276-2.226-1.128-2.58-2.46c-0.369-1.387-0.371-2.793,0.008-4.177
			c0.466-1.701,1.606-2.55,3.509-2.635c0.974-0.043,1.911,0.101,2.667,0.804c0.621,0.576,0.938,1.324,1.047,2.134
			c0.125,0.923,0.149,1.861,0.221,2.845c-1.543,0-2.989,0-4.427,0C44.2,30.518,44.467,30.919,45.06,31.01z"/>
	</g>
</g>
<g>
	<g>
		<path d="M45.476,26.416c-0.091-0.442-0.632-0.533-0.927-0.19c-0.092,0.107-0.17,0.254-0.188,0.392
			c-0.062,0.483-0.096,0.971-0.141,1.478c0.492,0,0.92,0,1.449,0C45.607,27.518,45.589,26.956,45.476,26.416z"/>
	</g>
</g>
<g>
</g>
<g>
</g>
<g>
</g>
<g>
</g>
<g>
</g>
<g>
</g>
<g>
</g>
<g>
</g>
<g>
</g>
<g>
</g>
<g>
</g>
<g>
</g>
<g>
</g>
<g>
</g>
<g>
</g>
</svg>
